<?xml version="1.0" encoding="UTF-8" standalone="no"?>
<!-- Created with Inkscape (http://www.inkscape.org/) -->

<svg
   xmlns:dc="http://purl.org/dc/elements/1.1/"
   xmlns:cc="http://creativecommons.org/ns#"
   xmlns:rdf="http://www.w3.org/1999/02/22-rdf-syntax-ns#"
   xmlns:svg="http://www.w3.org/2000/svg"
   xmlns="http://www.w3.org/2000/svg"
   xmlns:sodipodi="http://sodipodi.sourceforge.net/DTD/sodipodi-0.dtd"
   xmlns:inkscape="http://www.inkscape.org/namespaces/inkscape"
   version="1.1"
   id="svg10"
   width="666.66669"
   height="666.66669"
   viewBox="0 0 666.66669 666.66669"
   sodipodi:docname="ico.svg"
   inkscape:version="0.92.4 (5da689c313, 2019-01-14)">
  <metadata
     id="metadata16">
    <rdf:RDF>
      <cc:Work
         rdf:about="">
        <dc:format>image/svg+xml</dc:format>
        <dc:type
           rdf:resource="http://purl.org/dc/dcmitype/StillImage" />
        <dc:title></dc:title>
      </cc:Work>
    </rdf:RDF>
  </metadata>
  <defs
     id="defs14" />
  <sodipodi:namedview
     pagecolor="#ffffff"
     bordercolor="#666666"
     borderopacity="1"
     objecttolerance="10"
     gridtolerance="10"
     guidetolerance="10"
     inkscape:pageopacity="0"
     inkscape:pageshadow="2"
     inkscape:window-width="1920"
     inkscape:window-height="1125"
     id="namedview12"
     showgrid="false"
     inkscape:zoom="1.353"
     inkscape:cx="96.182573"
     inkscape:cy="434.20784"
     inkscape:window-x="-9"
     inkscape:window-y="-9"
     inkscape:window-maximized="1"
     inkscape:current-layer="svg10" />
  <path
     style="fill:#000000;stroke-width:0.72608715"
     d="m 67.138266,154.30772 c -0.77473,-0.21061 -1.105745,-1.98068 -1.105745,-5.91277 v -5.61216 H 46.129128 c -18.723929,0 -20.008211,-0.0707 -21.672567,-1.19195 -1.744627,-1.17542 -1.769193,-1.98662 -1.769193,-58.406219 0,-56.419602 0.02457,-57.230798 1.769193,-58.406205 1.69631,-1.142864 2.948638,-1.191964 30.402056,-1.191964 h 28.632862 l 0.474556,-2.383747 c 0.727923,-3.65629 4.387571,-7.287995 9.940641,-9.864727 6.830224,-3.1693539 7.949974,-2.6518548 7.957644,3.677667 0.004,2.583313 0.32516,5.032168 0.71564,5.441902 1.02935,1.08012 8.91576,0.933526 24.04734,-0.446985 14.53907,-1.326456 29.00749,-1.544822 34.11018,-0.514812 1.84505,0.372432 4.60276,1.445199 6.12826,2.383924 l 2.77361,1.706778 h 36.21381 c 35.03434,0 36.27142,0.03885 37.98299,1.191964 1.74462,1.175407 1.76919,1.986603 1.76919,58.406205 0,56.419599 -0.0245,57.230799 -1.76919,58.406219 -1.66196,1.11973 -2.94865,1.19195 -21.23028,1.19195 h -19.4611 v 5.59806 c 0,4.62012 -0.25138,5.66306 -1.439,5.9701 -3.45998,0.89454 -3.86856,-0.46081 -3.86856,-12.83309 V 129.6712 h -9.73054 -9.73057 v 11.84666 c 0,12.37228 -0.40855,13.72763 -3.86855,12.83309 -1.26172,-0.3262 -1.44247,-1.85107 -1.46714,-12.3769 -0.0216,-9.20561 -0.31003,-12.25532 -1.23704,-13.07896 -0.82733,-0.73506 -1.22923,-2.9925 -1.27323,-7.15179 -0.0627,-5.93219 0.35297,-13.96731 1.53275,-11.89596 0.2957,0.51918 2.32218,-0.22025 3.31052,-0.22025 1.66703,0 1.23352,6.70743 1.23352,11.46614 0,4.43268 0.1901,5.08045 1.39923,4.76784 0.76959,-0.19896 5.94445,-0.36174 11.49974,-0.36174 h 10.10051 v -14.0645 c 0,-15.028683 -0.45859,-16.908152 -4.54494,-18.627498 -1.04043,-0.437761 -12.17531,-1.95692 -24.74421,-3.375908 -12.5689,-1.418994 -23.26174,-2.75037 -23.76186,-2.958611 -0.51439,-0.214188 -0.90931,-2.723082 -0.90931,-5.776801 0,-5.319549 -0.0289,-5.392336 -1.99035,-4.997337 -4.61285,0.92898 -12.71292,0.995759 -16.8073,0.138556 l -4.20183,-0.879701 v 5.568324 c 0,3.170241 -0.3916,5.731391 -0.90932,5.946954 -0.5001,0.208242 -11.19295,1.539617 -23.761831,2.958611 -12.568903,1.418989 -23.703802,2.938148 -24.744223,3.375909 -4.086356,1.719346 -4.544924,3.598816 -4.544924,18.627492 v 14.06451 h 10.615143 10.615143 v -2.88836 c 0,-1.5886 0.258641,-5.34328 0.574766,-8.34374 0.486969,-4.6222 0.808177,-5.4554 2.103175,-5.4554 3.541733,0 3.645532,0.806 2.98781,23.20147 -0.650824,22.16136 -0.849392,23.21082 -4.226741,22.33765 -1.263856,-0.32676 -1.43901,-1.85137 -1.43901,-12.52589 V 129.6712 h -9.288249 -9.288248 v 11.80043 c 0,12.74961 -0.369375,13.87797 -4.201835,12.83609 z m -1.292143,-19.92526 c 0.198001,-3.50252 -0.05216,-4.69869 -1.105747,-5.28782 -1.164043,-0.65088 -1.361627,-3.08853 -1.361627,-16.79903 0,-12.1216 0.291823,-16.508235 1.195108,-17.964784 1.084262,-1.748318 6.801865,-5.733417 8.345072,-5.816386 0.347966,-0.01873 10.385321,-1.158526 22.305232,-2.532923 l 21.672589,-2.498904 0.25248,-5.070992 0.25248,-5.070987 -3.83207,-2.158104 C 106.13175,66.993709 101.84959,58.776906 102.43127,49.809645 l 0.21262,-3.277897 H 65.540561 28.437248 l -0.226591,46.349444 -0.226573,46.349438 18.803068,-0.16086 18.803089,-0.16086 z M 35.692012,71.48425 C 34.66584,70.792888 34.953374,49.929268 35.99504,49.495522 c 0.507852,-0.211461 1.511971,-0.05537 2.231391,0.346923 1.979874,1.107042 1.469793,21.621918 -0.544076,21.882476 -0.753529,0.09749 -1.64918,-0.01085 -1.990343,-0.240671 z m 13.202229,-6.496562 c -0.304504,-0.534581 -0.55362,-4.001402 -0.55362,-7.704038 0,-5.339207 0.282299,-6.88991 1.364387,-7.494963 2.548402,-1.42494 3.120824,0.194957 2.865,8.107758 -0.211493,6.541012 -0.463709,7.719863 -1.685443,7.877664 -0.790208,0.102052 -1.685859,-0.251829 -1.990324,-0.786421 z M 63.599898,58.91767 c -1.305939,-0.316077 -1.579659,-8.840342 -0.300988,-9.372775 0.442619,-0.184302 1.437801,-0.171436 2.211492,0.02861 1.094218,0.282897 1.406715,1.260053 1.406715,4.398818 0,4.029314 -0.991968,5.508172 -3.317219,4.945367 z M 240.08205,92.869324 239.85547,46.531748 h -36.7107 -36.7107 l -0.48662,7.449771 c -0.43321,6.63219 -0.75806,7.803407 -2.9601,10.672084 -1.36039,1.772269 -4.64233,4.615186 -7.29317,6.317588 l -4.81971,3.095286 0.26074,4.708067 0.26076,4.708069 21.61775,2.457741 c 12.91454,1.468264 22.82334,2.895165 24.61231,3.544251 1.647,0.597581 3.96056,2.197081 5.14124,3.554435 2.13222,2.451283 2.14669,2.57891 2.14669,18.91888 0,10.32444 -0.32942,16.58814 -0.88459,16.81931 -0.48654,0.20258 -0.8846,2.63213 -0.8846,5.399 v 5.03068 h 18.58192 18.58193 z M 229.41835,71.48425 c -0.34117,-0.229859 -0.62032,-5.03374 -0.62032,-10.675297 0,-8.51587 0.23165,-10.386901 1.36438,-11.020266 2.66524,-1.490271 3.10505,0.214906 2.85848,11.082938 -0.20597,9.080222 -0.44696,10.702537 -1.61222,10.853296 -0.7535,0.09749 -1.64915,-0.01085 -1.99032,-0.240671 z m -13.2995,-5.980421 c -0.99395,-0.669644 -0.68311,-15.584963 0.3336,-16.008307 0.50785,-0.211461 1.50302,-0.06036 2.21149,0.335789 0.98867,0.55282 1.28814,2.285351 1.28814,7.452339 0,3.702636 -0.24161,7.156295 -0.53694,7.674783 -0.55178,0.968804 -2.25064,1.249895 -3.29629,0.545396 z m -13.75087,-6.920223 c -0.54583,-0.36774 -0.99239,-2.463624 -0.99239,-4.657522 0,-3.096514 0.3147,-4.070274 1.40671,-4.352599 2.471,-0.638842 3.01626,0.206713 3.01626,4.677433 0,4.440899 -1.13755,5.87758 -3.43058,4.332688 z m -59.23909,13.161823 c 5.0404,-0.990052 11.33161,-4.591255 14.34857,-8.213364 2.46479,-2.959161 2.7386,-3.819497 2.94014,-9.237718 0.18122,-4.873947 0.0551,-5.590367 -0.68501,-3.888717 -1.46461,3.367514 -3.59449,4.17187 -11.0468,4.17187 -7.6167,0 -10.60075,-0.752791 -11.74421,-2.962728 -0.46828,-0.905026 -1.49566,-1.606469 -2.35293,-1.606469 -0.85728,0 -1.88464,0.701443 -2.35294,1.606469 -1.14345,2.209937 -4.12751,2.962728 -11.74421,2.962728 -7.45231,0 -9.58218,-0.804356 -11.0468,-4.17187 -0.73924,-1.699738 -0.86436,-0.982507 -0.67577,3.873878 0.206,5.304733 0.5163,6.310654 2.82299,9.151627 6.28697,7.743158 18.30893,10.91259 31.53697,8.314294 z m -16.22756,-23.602773 0.27405,-2.560969 -6.02391,0.177042 c -5.88527,0.172961 -6.03051,0.215912 -6.31102,1.866329 -0.52419,3.08411 0.17914,3.450739 6.24668,3.256192 l 5.54017,-0.177631 z m 26.70611,0.177036 v -2.681916 h -5.74986 -5.74986 v 2.681916 2.681917 h 5.74986 5.74986 z m -16.8073,-2.979908 c 0,-0.491686 0.79614,-1.430357 1.76919,-2.085935 2.57311,-1.733591 15.5213,-1.747049 18.78104,-0.01949 2.62916,1.393336 3.33384,1.074806 3.33384,-1.507006 0,-1.918049 -0.009,-1.92228 -3.31724,-1.40484 -6.26275,0.979846 -9.00163,0.68323 -11.93404,-1.292431 -1.50195,-1.011927 -3.71648,-2.092337 -4.92112,-2.40091 -2.25672,-0.578069 -13.00483,0.150804 -18.83449,1.277236 -1.64983,0.31876 -5.29122,0.579586 -8.09197,0.579586 h -5.09226 v 2.582583 c 0,3.255879 0.57365,3.628535 3.33383,2.16575 3.25976,-1.72753 16.20794,-1.714072 18.78106,0.01954 0.97305,0.655576 1.76917,1.594247 1.76917,2.085933 0,0.556248 0.83545,0.893971 2.2115,0.893971 1.37604,0 2.21149,-0.337723 2.21149,-0.893971 z m -34.40546,-3.128905 c 0.81621,-3.891608 0.48442,-4.405397 -3.786463,-5.863511 -4.770099,-1.628541 -9.772497,-4.77156 -11.801275,-7.414756 l -1.371379,-1.786728 -28.499167,0.157222 -28.499148,0.157227 -0.247587,7.598766 -0.247585,7.598767 h 37.17943 c 20.448677,0 37.221604,-0.201145 37.273174,-0.446987 z M 36.846889,35.808955 c -1.588937,-1.289913 -0.05895,-2.239589 3.20348,-1.988409 1.853889,0.142731 2.540391,0.517691 2.540391,1.387552 0,1.531 -4.073224,1.957089 -5.743871,0.600857 z m 15.228155,0.154263 c -1.493339,-1.212288 0.117922,-2.365165 2.996031,-2.143809 1.870744,0.143885 2.557793,0.516905 2.557793,1.388689 0,1.436292 -4.038377,1.985362 -5.553824,0.75512 z m 15.038108,0 c -1.493337,-1.212288 0.11791,-2.365165 2.996031,-2.143809 1.870746,0.143885 2.557814,0.516905 2.557814,1.388689 0,1.436292 -4.038379,1.985362 -5.553845,0.75512 z m 172.989898,-0.904119 -0.24758,-7.598766 -33.83576,-0.156074 -33.83577,-0.156084 v 3.277063 3.277053 l 29.8551,0.156919 c 29.18772,0.153414 29.85508,0.183568 29.85508,1.348888 0,1.16659 -0.66728,1.195299 -31.34618,1.348705 -34.87242,0.174375 -34.55617,0.136785 -34.55617,4.107499 v 1.993564 h 37.17945 37.1794 z M 161.272,35.493973 c 5.61424,-1.627227 6.97735,-4.368075 4.31077,-8.66786 -2.9505,-4.757614 -11.25268,-5.369368 -39.92509,-2.941924 -21.51234,1.821258 -25.44516,1.532183 -28.212863,-2.073752 -0.73484,-0.957374 -1.33606,-2.826769 -1.33606,-4.154205 0,-1.327438 -0.392411,-2.413522 -0.87203,-2.413522 -1.876094,0 -5.726561,4.919741 -5.637689,7.20326 0.242994,6.243481 11.424322,12.453604 22.432442,12.459009 1.70285,4.47e-4 7.19038,-0.534051 12.19454,-1.188644 14.67605,-1.919752 18.6628,-1.628138 23.88104,1.746822 2.54473,1.645848 3.3094,1.829617 6.19217,1.488139 1.80888,-0.214273 4.94663,-0.870068 6.97277,-1.457323 z M 124.81713,139.0519 c -0.55481,-0.9741 13.16225,-19.52961 15.07781,-20.39627 0.91542,-0.41415 1.71154,-0.30522 2.71622,0.37166 1.30525,0.8794 0.81931,1.75404 -5.95443,10.71757 -5.91657,7.82926 -7.77017,9.79777 -9.36994,9.95083 -1.1127,0.10639 -2.20442,-0.17815 -2.46966,-0.64379 z m -15.24044,-4.77586 c -3.51514,-2.38418 -6.39116,-4.73758 -6.39116,-5.22976 0,-1.48009 12.89285,-9.73154 14.54009,-9.30566 3.20506,0.82862 2.5507,2.25322 -2.66647,5.80528 l -5.1782,3.52552 4.00038,2.83281 c 6.13443,4.34398 6.5149,4.76712 5.22691,5.81271 -0.60568,0.49169 -1.56003,0.89398 -2.12079,0.89398 -0.56076,0 -3.89561,-1.95069 -7.41076,-4.33488 z m 39.56895,3.40937 c -0.9725,-0.78947 -0.40333,-1.42709 3.87236,-4.33814 2.75683,-1.87695 5.01242,-3.69272 5.01242,-4.03505 0,-0.34232 -2.20439,-2.14358 -4.89864,-4.00278 -4.22448,-2.91516 -4.76803,-3.54479 -3.94956,-4.57516 0.52201,-0.65712 1.46279,-1.19477 2.09067,-1.19477 1.51683,0 5.66384,2.92711 5.05738,3.58825 -0.26214,0.28575 -0.31917,-0.62945 0.18121,-0.15343 0.74164,0.70564 -1.457,-1.45076 -0.61224,-0.24314 -0.27388,-0.57364 0.93961,0.69538 0.22345,0.1798 -9.00299,-6.48413 8.98459,5.29803 8.98459,6.20169 0,1.01508 -12.36525,9.49824 -13.84486,9.49824 -0.53716,0 -1.48967,-0.41648 -2.11668,-0.92551 z m 24.56044,-22.70666 c 0.85004,-0.23206 0.85004,-0.46238 0,-1.08236 -0.59391,-0.43317 -1.37839,-0.6658 -1.74329,-0.51697 -0.3649,0.14884 -0.66345,-0.16333 -0.66345,-0.6937 0,-0.53038 0.35635,-0.81594 0.79191,-0.63458 0.43554,0.18135 1.02017,-0.071 1.29913,-0.56081 0.83504,-1.46611 3.21655,-1.0584 3.21655,0.55066 0,2.1602 -0.90314,3.33217 -2.52729,3.27959 -0.87636,-0.0283 -1.02468,-0.16408 -0.37356,-0.34183 z m -1.64319,-4.26146 c 1.01806,-0.48056 1.186,-0.45908 0.16799,-0.71299 -0.89944,-0.22433 -0.96533,-0.57116 0.23373,-0.90423 0.93457,-0.25959 2.04549,-0.1491 2.6538,0.26392 0.80779,0.54851 0.68519,0.61779 -0.53794,0.30401 -1.04076,-0.267 0.004,-0.39954 0.17385,0.089 0.14153,0.40897 -1.84048,1.11278 -2.57026,1.26066 -1.07593,0.21801 -1.09883,0.16121 -0.12112,-0.30035 z"
     id="path20"
     inkscape:connector-curvature="0"
     sodipodi:nodetypes="cscscscscsscsscccscscscscscccscscccsscscscssscccscscscccsssssscccscccsccscccccccccccccccccccscscccccsccccccssccccsscscscccccscscccccsccsscssssscscscsccssccccccccccccccccsscsccccscsscssssccscccccscccscscssscssccccccssssccccscssssccccsscccsccsscccccssccsccscccsssccccsccscccccccccc" />
  <text
     xml:space="preserve"
     style="font-style:normal;font-variant:normal;font-weight:bold;font-stretch:semi-expanded;font-size:24.50165176px;line-height:1.25;font-family:Magneto;-inkscape-font-specification:'Magneto, Bold Semi-Expanded';font-variant-ligatures:normal;font-variant-caps:normal;font-variant-numeric:normal;font-feature-settings:normal;text-align:center;letter-spacing:0px;word-spacing:0px;writing-mode:lr-tb;text-anchor:middle;fill:#000000;fill-opacity:1;stroke:none;stroke-width:0.57425749"
     x="172.67348"
     y="143.39645"
     id="text24"
     transform="scale(0.78233843,1.2782192)"><tspan
       sodipodi:role="line"
       id="tspan22"
       x="172.67348"
       y="143.39645"
       style="stroke-width:0.57425749">SELVIN  VASQUEZ</tspan></text>
</svg>
